<svg xmlns="http://www.w3.org/2000/svg" viewBox="0 0 512 512">
  <defs>
    <linearGradient id="g" x1="80" y1="32" x2="432" y2="480" gradientUnits="userSpaceOnUse">
      <stop offset="0" stop-color="#7aa7ff" stop-opacity="0.95" />
      <stop offset="1" stop-color="#55d691" stop-opacity="0.95" />
    </linearGradient>
    <filter id="s" x="-30%" y="-30%" width="160%" height="160%">
      <feDropShadow dx="0" dy="18" stdDeviation="18" flood-color="#000" flood-opacity="0.35" />
    </filter>
  </defs>
  <rect width="512" height="512" rx="110" fill="#0b1220" />
  <g filter="url(#s)">
    <path
      d="M132 184c0-44.2 35.8-80 80-80h88c44.2 0 80 35.8 80 80v144c0 44.2-35.8 80-80 80h-88c-44.2 0-80-35.8-80-80V184Z"
      fill="url(#g)"
      opacity="0.98"
    />
    <path
      d="M198 232c0-14.4 11.6-26 26-26h64c14.4 0 26 11.6 26 26s-11.6 26-26 26h-64c-14.4 0-26-11.6-26-26Zm0 84c0-14.4 11.6-26 26-26h64c14.4 0 26 11.6 26 26s-11.6 26-26 26h-64c-14.4 0-26-11.6-26-26Z"
      fill="#0b1220"
      opacity="0.9"
    />
  </g>
</svg>
